<?xml version="1.0" standalone="no"?>
<!DOCTYPE svg PUBLIC "-//W3C//DTD SVG 20010904//EN"
 "http://www.w3.org/TR/2001/REC-SVG-20010904/DTD/svg10.dtd">
<svg version="1.0" xmlns="http://www.w3.org/2000/svg"
 width="512.000000pt" height="512.000000pt" viewBox="0 0 512.000000 512.000000"
 preserveAspectRatio="xMidYMid meet">

<g transform="translate(0.000000,512.000000) scale(0.100000,-0.100000)"
fill="#000000" stroke="none">
<path d="M911 5103 c-67 -35 -90 -92 -91 -224 l0 -77 -182 -4 c-152 -4 -193
-9 -240 -26 -165 -60 -280 -184 -322 -348 -14 -55 -16 -266 -16 -2026 0 -2152
-4 -2011 59 -2136 38 -74 129 -165 203 -203 125 -63 -26 -59 2238 -59 2264 0
2116 -4 2239 58 69 35 158 122 198 192 67 119 63 -28 63 2151 0 1906 -1 1976
-19 2039 -26 89 -64 153 -130 217 -110 108 -219 143 -453 143 l-156 0 -4 109
c-2 92 -6 114 -24 137 -70 94 -190 96 -251 5 -20 -30 -23 -46 -23 -142 l0
-109 -149 0 -149 0 -4 109 c-2 92 -6 114 -24 137 -70 94 -190 96 -251 5 -20
-30 -23 -46 -23 -142 l0 -109 -834 0 -833 0 -5 110 c-5 119 -13 141 -72 184
-38 29 -124 29 -163 0 -52 -39 -67 -79 -71 -191 l-4 -103 -143 0 -143 0 -4
109 c-4 118 -12 141 -70 184 -37 28 -105 32 -147 10z m-89 -711 c4 -91 8 -115
27 -146 62 -99 205 -92 259 14 18 37 22 60 22 142 l0 98 144 0 143 0 5 -108
c3 -84 9 -117 24 -143 57 -96 202 -96 259 1 16 28 21 57 24 143 l3 107 832 -2
831 -3 5 -115 c6 -127 14 -148 69 -182 65 -41 156 -21 203 44 20 29 23 47 26
146 l4 113 146 -3 147 -3 5 -115 c6 -127 13 -148 69 -182 65 -41 156 -21 203
44 20 29 23 47 27 146 l3 112 129 0 c204 0 269 -24 310 -115 16 -35 19 -69 19
-292 l0 -253 -2201 0 -2200 0 3 263 3 264 27 41 c50 74 98 90 289 91 l136 1 5
-108z m3938 -2394 c0 -1475 -1 -1545 -19 -1583 -22 -50 -69 -91 -119 -105 -54
-15 -4073 -14 -4127 1 -51 14 -110 73 -124 124 -8 28 -11 485 -11 1573 l0
1532 2200 0 2200 0 0 -1542z"/>
<path d="M2360 3105 c-364 -69 -670 -286 -847 -602 -288 -516 -150 -1174 322
-1534 370 -282 880 -325 1285 -107 276 148 484 395 580 688 220 674 -191 1389
-890 1545 -103 23 -352 28 -450 10z m425 -315 c178 -47 357 -163 473 -307 283
-352 261 -854 -52 -1181 -278 -291 -723 -360 -1074 -166 -318 174 -498 518
-461 876 23 221 115 406 282 564 134 129 280 198 497 238 58 11 257 -3 335
-24z"/>
<path d="M2915 2324 c-16 -8 -130 -115 -252 -237 l-223 -222 -113 113 c-124
124 -156 141 -224 122 -48 -13 -65 -26 -92 -70 -24 -40 -27 -99 -7 -138 8 -15
95 -107 193 -204 148 -146 184 -178 215 -183 80 -15 84 -12 396 299 161 160
300 303 308 318 20 39 18 107 -6 146 -40 66 -128 91 -195 56z"/>
</g>
</svg>
