<?xml version="1.0" standalone="no"?>
<!DOCTYPE svg PUBLIC "-//W3C//DTD SVG 20010904//EN"
 "http://www.w3.org/TR/2001/REC-SVG-20010904/DTD/svg10.dtd">
<svg version="1.0" xmlns="http://www.w3.org/2000/svg"
 width="512.000000pt" height="512.000000pt" viewBox="0 0 512.000000 512.000000"
 preserveAspectRatio="xMidYMid meet">

<g transform="translate(0.000000,512.000000) scale(0.100000,-0.100000)"
fill="#000000" stroke="none">
<path d="M890 5109 c-234 -36 -485 -177 -638 -359 -342 -406 -332 -995 21
-1385 l55 -61 -33 -120 c-113 -412 -113 -836 0 -1248 l33 -120 -55 -61 c-114
-126 -196 -276 -241 -444 -22 -85 -25 -115 -25 -261 0 -180 10 -235 72 -395
94 -243 333 -482 576 -576 160 -62 215 -72 395 -72 146 0 176 3 261 25 168 45
318 127 444 241 l61 55 120 -33 c410 -112 838 -112 1248 0 l120 33 61 -55
c126 -115 276 -196 444 -240 83 -23 117 -26 256 -27 137 0 173 3 249 23 392
102 669 380 779 781 16 62 20 104 20 240 0 146 -3 176 -25 261 -45 168 -127
318 -241 444 l-55 61 33 120 c112 410 112 838 0 1248 l-33 120 55 61 c114 126
196 276 241 444 22 85 25 115 25 261 0 136 -4 178 -20 240 -110 401 -387 679
-779 781 -76 20 -112 23 -249 23 -139 -1 -173 -4 -256 -27 -168 -44 -318 -125
-444 -240 l-61 -55 -120 33 c-339 93 -681 109 -1034 49 -52 -9 -148 -31 -214
-49 l-120 -33 -61 55 c-127 115 -278 197 -444 240 -110 28 -312 39 -421 22z
m354 -314 c77 -21 152 -55 214 -97 l51 -34 -70 -38 c-384 -208 -738 -561 -944
-943 l-39 -72 -34 51 c-72 107 -109 221 -119 368 -23 366 227 692 597 775 80
18 259 13 344 -10z m2974 9 c364 -75 622 -409 599 -774 -10 -147 -47 -261
-119 -368 l-34 -51 -39 72 c-65 120 -188 296 -288 413 -177 205 -374 367 -629
514 l-96 56 50 33 c160 105 367 144 556 105z m-1418 -210 c313 -36 626 -150
885 -323 102 -68 205 -148 205 -159 0 -4 -110 -117 -244 -251 l-243 -243 -74
50 c-116 79 -214 128 -344 171 -401 133 -833 73 -1184 -164 l-84 -57 -243 243
c-134 134 -244 247 -244 251 0 11 103 91 205 159 247 164 568 285 850 318 50
6 101 13 115 15 67 9 279 4 400 -10z m-1541 -948 l243 -243 -57 -84 c-191
-282 -269 -623 -219 -957 29 -195 107 -395 219 -561 l57 -84 -243 -243 c-134
-134 -247 -244 -251 -244 -11 0 -91 103 -159 205 -360 541 -437 1243 -204
1854 68 180 190 394 310 544 25 31 49 57 53 57 4 0 117 -110 251 -244z m2906
187 c497 -624 583 -1492 220 -2202 -76 -149 -247 -401 -273 -401 -4 0 -117
110 -250 243 l-244 244 66 101 c156 237 221 456 221 742 0 120 -5 188 -18 250
-39 187 -111 360 -212 509 l-57 84 243 243 c134 134 247 244 251 244 4 0 28
-26 53 -57z m-1365 -251 c198 -52 365 -146 501 -281 135 -135 226 -297 282
-501 16 -62 20 -104 20 -240 0 -180 -10 -235 -72 -395 -94 -243 -333 -482
-576 -576 -160 -62 -215 -72 -395 -72 -180 0 -235 10 -395 72 -243 94 -482
333 -576 576 -61 158 -72 216 -73 390 -1 179 16 267 79 416 137 325 458 574
810 629 94 14 308 4 395 -18z m-2244 -2248 c209 -342 535 -652 881 -839 l72
-39 -51 -34 c-107 -72 -221 -109 -368 -119 -438 -28 -815 349 -787 787 10 145
46 259 118 369 l33 50 30 -52 c16 -29 48 -84 72 -123z m4200 21 c35 -81 54
-161 61 -265 28 -438 -349 -815 -787 -787 -146 10 -251 43 -361 115 l-57 36
97 56 c254 147 451 309 628 514 100 117 223 293 288 413 l39 72 34 -51 c19
-28 45 -74 58 -103z m-2953 89 c147 -100 321 -172 507 -211 62 -13 130 -18
250 -18 187 0 280 15 444 72 123 43 184 73 305 153 l94 62 244 -244 c133 -133
243 -246 243 -250 0 -11 -103 -91 -205 -159 -654 -435 -1519 -450 -2192 -38
-79 49 -247 172 -258 189 -5 8 80 100 236 256 134 134 245 244 246 244 2 0 40
-25 86 -56z"/>
</g>
</svg>
