<?xml version="1.0" standalone="no"?>
<!DOCTYPE svg PUBLIC "-//W3C//DTD SVG 20010904//EN"
 "http://www.w3.org/TR/2001/REC-SVG-20010904/DTD/svg10.dtd">
<svg version="1.0" xmlns="http://www.w3.org/2000/svg"
 width="512.000000pt" height="512.000000pt" viewBox="0 0 512.000000 512.000000"
 preserveAspectRatio="xMidYMid meet">

<g transform="translate(0.000000,512.000000) scale(0.100000,-0.100000)"
fill="#000000" stroke="none">
<path d="M368 4898 c-21 -5 -58 -28 -83 -50 -81 -72 -76 77 -73 -1883 l3
-1740 22 -41 c27 -51 72 -90 121 -104 26 -8 568 -10 1798 -8 l1761 3 39 27
c21 15 50 44 64 65 l25 37 3 1760 c2 1230 0 1772 -8 1798 -14 49 -53 94 -104
121 l-41 22 -1745 2 c-1128 1 -1758 -2 -1782 -9z m3260 -1910 l-3 -1493 -1492
-3 -1493 -2 0 1495 0 1495 1495 0 1495 0 -2 -1492z"/>
<path d="M1920 3565 l0 -365 -365 0 -365 0 0 -215 0 -215 365 0 365 0 0 -365
0 -365 215 0 215 0 0 365 0 365 365 0 365 0 0 215 0 215 -365 0 -365 0 0 365
0 365 -215 0 -215 0 0 -365z"/>
<path d="M4270 3840 l0 -210 105 0 105 0 0 -1495 0 -1495 -1495 0 -1495 0 0
105 0 105 -210 0 -210 0 0 -235 c0 -190 3 -243 15 -273 20 -47 50 -78 100
-105 l40 -22 1740 -3 c1961 -3 1811 -8 1884 74 28 32 43 61 51 97 8 37 10 541
8 1782 l-3 1730 -22 40 c-27 50 -58 80 -105 100 -30 12 -83 15 -273 15 l-235
0 0 -210z"/>
</g>
</svg>
